PathFileType	4	(X/Y/Z)	8_coords_data.trc
DataRate	CameraRate	NumFrames	NumMarkers	Units	OrigDataRate	OrigDataStartFrame	OrigNumFrames
30.0	30.0	9	21	m	30.0	42	62
Frame#	Time	THUMB_TIP	THUMB_IP	THUMB_MCP	THUMB_CMC	INDEX_TIP	INDEX_DIP	INDEX_PIP	INDEX_MCP	MIDDLE_TIP	MIDDLE_DIP	MIDDLE_PIP	MIDDLE_MCP	RING_TIP	RING_DIP	RING_PIP	RING_MCP	PINKY_TIP	PINKY_DIP	PINKY_PIP	PINKY_MCP	WRIST
X1	Y1	Z1	X2	Y2	Z2	X3	Y3	Z3	X4	Y4	Z4	X5	Y5	Z5	X6	Y6	Z6	X7	Y7	Z7	X8	Y8	Z8	X9	Y9	Z9	X10	Y10	Z10	X11	Y11	Z11	X12	Y12	Z12	X13	Y13	Z13	X14	Y14	Z14	X15	Y15	Z15	X16	Y16	Z16	X17	Y17	Z17	X18	Y18	Z18	X19	Y19	Z19	X20	Y20	Z20	X21	Y21	Z21
41	1.3666666666666667	-0.03855519866943359	-0.10856300354003906	0.99197802734375	-0.03587400054931641	-0.082793701171875	0.9963679809570313	-0.03861240005493164	-0.057456401824951174	1.0051699829101564	-0.039993900299072266	-0.024895999908447267	1.01072998046875	0.006158889770507812	-0.07515280151367187	0.907583984375	-0.011413999557495117	-0.07037989807128907	0.918572021484375	-0.028402700424194335	-0.06467279815673828	0.9310969848632813	-0.04401959991455078	-0.04966809844970703	0.9607219848632812	0.009341150283813477	-0.05386920166015625	0.8871849975585937	-0.008151140213012695	-0.048590999603271484	0.901656982421875	-0.02878429985046387	-0.04234030151367187	0.9183389892578125	-0.04470249938964844	-0.030203300476074217	0.9517919921875	0.005275279998779297	-0.02769849967956543	0.8862160034179688	-0.011008899688720703	-0.022861900329589843	0.9009400024414063	-0.02895050048828125	-0.01817620086669922	0.9178099975585937	-0.041606399536132814	-0.011222999572753906	0.9501290283203125	-0.006469429969787598	0.001977100014686584	0.8973319702148438	-0.018274099349975585	0.0043621501922607425	0.9131320190429687	-0.028304899215698242	0.005710090160369873	0.9276309814453125	-0.03801570129394531	0.007453710079193115	0.9528590087890625	-0.06254800033569335	0.004466650009155274	1.0209500122070312
42	1.4	-0.03832260131835938	-0.10765899658203125	0.9911110229492187	-0.03556660079956055	-0.08183709716796875	0.9959420166015625	-0.038204898834228514	-0.05647750091552734	1.0051699829101564	-0.03962379837036133	-0.024154199600219726	1.0109000244140625	0.002067329883575439	-0.07642990112304687	0.903135986328125	-0.013459199905395508	-0.07062270355224609	0.9165709838867188	-0.028946800231933592	-0.06423249816894532	0.9307979736328125	-0.04337889862060547	-0.04873789978027344	0.9606179809570312	0.003242850065231323	-0.05355910110473633	0.8814819946289062	-0.011670100212097167	-0.04802989959716797	0.8988759765625	-0.030088800430297852	-0.04144770050048828	0.9179310302734375	-0.04428409957885742	-0.029318199157714844	0.9519099731445313	-0.0005794609785079951	-0.026124500274658204	0.8815089721679688	-0.01498390007019043	-0.021332300186157227	0.8985700073242188	-0.030945199966430664	-0.016803600311279296	0.9172930297851563	-0.041467899322509764	-0.010335599899291992	0.9502650146484375	-0.010331199645996094	0.004122210025787353	0.894969970703125	-0.020631000518798827	0.006061560153961182	0.9121179809570312	-0.02951300048828125	0.007099080085754394	0.9275050048828125	-0.03798490142822265	0.008271530151367187	0.953156982421875	-0.06240969848632812	0.005073390007019043	1.021260009765625
43	1.4333333333333333	-0.03875410079956055	-0.10683000183105469	0.9894829711914063	-0.03582460021972656	-0.08104650115966797	0.9949550170898438	-0.038292701721191404	-0.055696098327636716	1.0046400146484376	-0.03951390075683594	-0.023352699279785158	1.0108800048828126	-0.004123929977416992	-0.07689309692382812	0.897885009765625	-0.0169596004486084	-0.07027480316162109	0.9137830200195313	-0.030304399490356446	-0.06321269989013673	0.929905029296875	-0.043074901580810544	-0.047647998809814456	0.9603560180664062	-0.003724139928817749	-0.05223640060424805	0.8763179931640624	-0.01586019992828369	-0.046672599792480465	0.895989990234375	-0.031767099380493165	-0.03995050048828125	0.9172540283203126	-0.04395019912719727	-0.02819409942626953	0.9517360229492188	-0.006826109886169433	-0.02408110046386719	0.877322021484375	-0.019075000762939453	-0.01952639961242676	0.896239990234375	-0.032836498260498045	-0.015156499862670899	0.9167680053710937	-0.0411885986328125	-0.009277549743652344	0.9501389770507812	-0.014024499893188477	0.007229139804840088	0.8930180053710938	-0.022931800842285157	0.00851239013671875	0.9112509765625	-0.030605199813842774	0.009001449584960937	0.9273109741210938	-0.03773080062866211	0.009223999977111817	0.9532429809570313	-0.06245130157470703	0.005718850135803223	1.02152001953125
44	1.4666666666666666	-0.038044700622558596	-0.10596399688720703	0.98889599609375	-0.03531460189819336	-0.08032790374755859	0.994406005859375	-0.037975101470947265	-0.05491049957275391	1.004510009765625	-0.03943130111694336	-0.022662399291992187	1.0108099975585938	-0.008239310264587402	-0.07687779998779297	0.8952119750976563	-0.019333499908447266	-0.06993229675292968	0.9123189697265625	-0.03134630012512207	-0.06254859924316407	0.92931298828125	-0.04297740173339844	-0.04683089828491211	0.9602429809570312	-0.009607569694519043	-0.051669700622558594	0.8732030029296876	-0.01959199905395508	-0.046002899169921875	0.8941019897460938	-0.0335526008605957	-0.03914889907836914	0.916677978515625	-0.044109298706054685	-0.027409299850463868	0.951739013671875	-0.012738100051879883	-0.023451000213623046	0.874594970703125	-0.023157100677490234	-0.01889459991455078	0.8948489990234375	-0.03509320068359375	-0.014459699630737304	0.916447021484375	-0.04146709823608399	-0.008569769859313965	0.95010400390625	-0.017913400650024416	0.009160770416259765	0.8916099853515626	-0.025496900558471678	0.010067999839782715	0.9104219970703125	-0.03215549850463867	0.010168299674987794	0.926969970703125	-0.03798870086669922	0.009741959571838378	0.9530180053710937	-0.062397201538085936	0.006061110019683838	1.0214500122070314
45	1.5	-0.03757350158691406	-0.10537799835205078	0.9884010009765625	-0.03495050048828125	-0.07975630187988281	0.9940969848632812	-0.037595901489257816	-0.05437350082397461	1.0043599853515626	-0.03917380142211914	-0.022157499313354492	1.0108499755859375	-0.013363800048828124	-0.07767019653320313	0.8929000244140625	-0.022474899291992187	-0.0702197036743164	0.9110980224609375	-0.03277980041503906	-0.06243069839477539	0.9288599853515624	-0.042667400360107424	-0.046210498809814454	0.9602230224609375	-0.015912500381469727	-0.051141300201416016	0.8706630249023437	-0.02359550094604492	-0.04549300003051758	0.89256201171875	-0.03552840042114258	-0.03855590057373047	0.9162509765625	-0.04411700057983398	-0.026883100509643553	0.9517849731445313	-0.018611400604248048	-0.02283060073852539	0.8726069946289062	-0.027218599319458008	-0.01826140022277832	0.8938870239257812	-0.03738240051269531	-0.013879799842834472	0.9163159790039063	-0.04175239944458008	-0.00807487964630127	0.9501309814453125	-0.02154199981689453	0.01067199993133545	0.8906719970703125	-0.028014600753784178	0.011263699531555175	0.909926025390625	-0.03377730178833008	0.011081899642944336	0.9267589721679688	-0.038329898834228514	0.01016569995880127	0.9529409790039063	-0.062354999542236327	0.0063167400360107425	1.0216300048828124
46	1.5333333333333334	-0.03851050186157227	-0.10511699676513672	0.9881589965820312	-0.03562310028076172	-0.07954660034179688	0.9939879760742187	-0.03788359832763672	-0.054160701751708985	1.0042999877929688	-0.0392952995300293	-0.02190180015563965	1.0109000244140625	-0.017953399658203126	-0.07962770080566406	0.8920700073242187	-0.02548419952392578	-0.0714364013671875	0.9106959838867188	-0.0344015007019043	-0.06294340133666992	0.9288330078125	-0.0427411003112793	-0.04571089935302734	0.9602449951171875	-0.02040589904785156	-0.050835201263427734	0.869051025390625	-0.026436899185180666	-0.0451328010559082	0.891791015625	-0.03685189819335938	-0.03811309814453125	0.9160479736328125	-0.04412160110473633	-0.02644809913635254	0.95181298828125	-0.022582199096679686	-0.0218927001953125	0.8713920288085938	-0.029924699783325195	-0.017388700485229492	0.8932650146484375	-0.038830001831054686	-0.013106399536132813	0.9162579956054687	-0.04166279983520508	-0.007603730201721191	0.950177978515625	-0.023684099197387697	0.011865900039672852	0.8901539916992187	-0.029285900115966795	0.012179100036621093	0.9097579956054688	-0.03441450119018555	0.011786999702453614	0.9267369995117187	-0.038160301208496096	0.010530200004577637	0.9529829711914063	-0.0625536003112793	0.006592420101165772	1.02172998046875
47	1.5666666666666667	-0.038065399169921875	-0.10480699920654298	0.9879749755859375	-0.03518510055541992	-0.07931950378417969	0.9937150268554688	-0.037938499450683595	-0.05386399841308594	1.0042000122070311	-0.03909040069580078	-0.021821699142456054	1.0108200073242188	-0.021454099655151368	-0.08033100128173828	0.8911810302734375	-0.027492700576782228	-0.07181040191650391	0.9102020263671875	-0.03524430084228516	-0.06295640182495117	0.9286320190429688	-0.04237699890136719	-0.04538040161132813	0.9602459716796875	-0.023545400619506836	-0.050384201049804685	0.8680910034179687	-0.02836440086364746	-0.04474900054931641	0.8911909790039062	-0.037644901275634766	-0.03769879913330078	0.9159089965820313	-0.0439807014465332	-0.02620599937438965	0.9518880004882813	-0.025492399215698243	-0.021337600708007814	0.8708380126953125	-0.03176930046081543	-0.01693470001220703	0.8930239868164063	-0.03975870132446289	-0.012728500366210937	0.9163189697265625	-0.041535400390625	-0.0073125500679016115	0.9502479858398437	-0.025859500885009764	0.012915399551391602	0.8898330078125	-0.030671100616455078	0.012969200134277343	0.9097109985351562	-0.035170398712158206	0.012361200332641601	0.9268270263671875	-0.038017501831054686	0.010799500465393066	0.9532490234375	-0.06253070068359375	0.006611790180206299	1.021780029296875
48	1.6	-0.03807180023193359	-0.10456999969482422	0.9874169921875	-0.03529290008544922	-0.07892960357666015	0.9935139770507813	-0.03759889984130859	-0.05363809967041016	1.004030029296875	-0.03896580123901367	-0.02151339912414551	1.0108599853515625	-0.02594470024108887	-0.08095110321044922	0.8902260131835937	-0.030313100814819336	-0.0720552978515625	0.9095759887695313	-0.036720001220703125	-0.06285829925537109	0.9283900146484375	-0.04223509979248047	-0.04508290100097656	0.96010498046875	-0.028158100128173828	-0.04997880172729492	0.866989990234375	-0.0315088005065918	-0.04438710021972656	0.8904539794921875	-0.039313701629638674	-0.03725650024414062	0.9157570190429688	-0.04395299911499023	-0.025731199264526366	0.9518660278320312	-0.02941279983520508	-0.020802799224853515	0.8700689697265624	-0.03465359878540039	-0.016451000213623047	0.8927100219726563	-0.0413302001953125	-0.012284000396728516	0.9164320068359375	-0.04161920166015625	-0.006916719913482666	0.9501929931640625	-0.02891390037536621	0.014774499893188476	0.889531005859375	-0.032761001586914064	0.014341899871826172	0.9095250244140625	-0.03638470077514649	0.013310700416564942	0.9267579956054688	-0.03807929992675781	0.011048500061035155	0.953083984375	-0.06237469863891602	0.006871439933776855	1.021989990234375
49	1.6333333333333333	-0.03852529907226562	-0.10439900207519531	0.98735400390625	-0.035671199798583984	-0.07880130004882813	0.9933870239257813	-0.037856300354003905	-0.05357540130615234	1.00397998046875	-0.03902569961547851	-0.021490400314331054	1.0108699951171876	-0.02752009963989258	-0.08115450286865235	0.8900059814453125	-0.03128549957275391	-0.07219370269775391	0.9094940185546875	-0.03729819869995117	-0.06282410049438476	0.9284019775390625	-0.04237670135498047	-0.044859699249267575	0.9601530151367188	-0.028779300689697265	-0.04973130035400391	0.8668790283203125	-0.031994600296020505	-0.0441870002746582	0.8903560180664063	-0.03962540054321289	-0.03705329895019531	0.9157039794921875	-0.044107200622558594	-0.02550399971008301	0.9519500122070312	-0.029817399978637697	-0.02080500030517578	0.8700590209960938	-0.0349000015258789	-0.016389999389648437	0.8927130126953124	-0.04148709869384765	-0.012165800094604492	0.916448974609375	-0.04177410125732422	-0.006764999866485596	0.9502030029296875	-0.02938209915161133	0.015858799934387206	0.8895770263671875	-0.03308890151977539	0.01516450023651123	0.909572998046875	-0.03663669967651367	0.013856499671936036	0.9267960205078125	-0.03818450164794922	0.011198800086975097	0.9530809936523438	-0.0624213981628418	0.007010000228881836	1.02197998046875
